HIERARCHY
ROOT root
{
	OFFSET	0	13.1	24.9
	CHANNELS 6  Xposition Yposition Zposition Xrotation Yrotation Zrotation
	JOINT spine_1
	{
		OFFSET	0	9.99999	0
		CHANNELS 3  Xrotation Yrotation Zrotation
		JOINT spine_2
		{
			OFFSET	0	112	-10
			CHANNELS 3  Xrotation Yrotation Zrotation
			JOINT spine_3
			{
				OFFSET	0	206.5	19.3
				CHANNELS 3  Xrotation Yrotation Zrotation
				JOINT spine_4
				{
					OFFSET	0	110.4	14.6
					CHANNELS 3  Xrotation Yrotation Zrotation
					JOINT neck_1
					{
						OFFSET	0	71.8	-50.3
						CHANNELS 3  Xrotation Yrotation Zrotation
						JOINT neck_2
						{
							OFFSET	0	86.2	-25.8
							CHANNELS 3  Xrotation Yrotation Zrotation
							JOINT head_ee
							{
								OFFSET	0	179.8	-8.7
								CHANNELS 3  Xrotation Yrotation Zrotation
								End Site
								{
									OFFSET	1	0	0
								}
							}
						}
					}
					JOINT left_clavicle
					{
						OFFSET	-43.2	22.4	-70.8
						CHANNELS 3  Xrotation Yrotation Zrotation
						JOINT left_shoulder
						{
							OFFSET	-93.9	-5.79999	48.7
							CHANNELS 3  Xrotation Yrotation Zrotation
							JOINT left_elbow
							{
								OFFSET	-291.4	-30.8	15.2
								CHANNELS 3  Xrotation Yrotation Zrotation
								JOINT left_lowarm_twist
								{
									OFFSET	-110.7	-3.89999	13.6
									CHANNELS 3  Xrotation Yrotation Zrotation
									JOINT left_hand
									{
										OFFSET	-110.7	-3.89999	13.6
										CHANNELS 3  Xrotation Yrotation Zrotation
										JOINT left_ee
										{
											OFFSET	-80.8	-5.10001	12.1
											CHANNELS 3  Xrotation Yrotation Zrotation
											End Site
											{
												OFFSET	1	0	0
											}
										}
									}
								}
							}
						}
					}
					JOINT right_clavicle
					{
						OFFSET	43.2	22.4	-70.8
						CHANNELS 3  Xrotation Yrotation Zrotation
						JOINT right_shoulder
						{
							OFFSET	93.9	-5.79999	48.7
							CHANNELS 3  Xrotation Yrotation Zrotation
							JOINT right_elbow
							{
								OFFSET	291.4	-30.8	15.2
								CHANNELS 3  Xrotation Yrotation Zrotation
								JOINT right_lowarm_twist
								{
									OFFSET	110.7	-3.89999	13.6
									CHANNELS 3  Xrotation Yrotation Zrotation
									JOINT right_hand
									{
										OFFSET	110.7	-3.89999	13.6
										CHANNELS 3  Xrotation Yrotation Zrotation
										JOINT right_ee
										{
											OFFSET	80.8	-5.10001	12.1
											CHANNELS 3  Xrotation Yrotation Zrotation
											End Site
											{
												OFFSET	1	0	0
											}
										}
									}
								}
							}
						}
					}
				}
			}
		}
	}
	JOINT left_hip
	{
		OFFSET	-82.8	-127.5	0.300001
		CHANNELS 3  Xrotation Yrotation Zrotation
		JOINT left_knee
		{
			OFFSET	-28.2	-396.7	2.2
			CHANNELS 3  Xrotation Yrotation Zrotation
			JOINT left_ankle
			{
				OFFSET	-11.7	-411.3	35.4
				CHANNELS 3  Xrotation Yrotation Zrotation
				JOINT left_toes
				{
					OFFSET	0	-60	-88.6
					CHANNELS 3  Xrotation Yrotation Zrotation
					JOINT left_foot_ee
					{
						OFFSET	-22.5	-16.5	-42.2
						CHANNELS 3  Xrotation Yrotation Zrotation
						End Site
						{
							OFFSET	1	0	0
						}
					}
				}
			}
		}
	}
	JOINT right_hip
	{
		OFFSET	82.8	-127.5	0.300001
		CHANNELS 3  Xrotation Yrotation Zrotation
		JOINT right_knee
		{
			OFFSET	28.2	-396.7	2.2
			CHANNELS 3  Xrotation Yrotation Zrotation
			JOINT right_ankle
			{
				OFFSET	11.7	-411.3	35.4
				CHANNELS 3  Xrotation Yrotation Zrotation
				JOINT right_toes
				{
					OFFSET	0	-60	-88.6
					CHANNELS 3  Xrotation Yrotation Zrotation
					JOINT right_foot_ee
					{
						OFFSET	22.5	-16.5	-42.2
						CHANNELS 3  Xrotation Yrotation Zrotation
						End Site
						{
							OFFSET	1	0	0
						}
					}
				}
			}
		}
	}
}
MOTION
Frames: 15
Frame Time: 0.02
2766.42 702.204 -1264.83 -17.2694 68.2686 11.5178 3.51995 0.465871 3.88047 3.5283 0.218195 3.9022 3.53938 -0.367717 3.89098 3.51834 0.250924 3.90024 -12.6775 16.3982 -0.325869 -13.3623 31.3867 4.7878 -0.0 0.0 -0.0 -8.50739 23.6654 -9.05777 -26.7188 -20.0513 69.7738 1.06582 -27.8323 0.264091 18.116 0.278713 -2.28775 -0.963931 -2.37753 -7.49754 -0.0 0.0 -0.0 12.3667 22.5005 -24.577 -3.26621 46.6375 -60.5161 1.37138 34.1881 -0.421754 59.8624 1.76169 7.09522 2.63215 -5.49691 -19.9839 0.0 0.0 0.0 -13.3681 -1.1656 11.0004 -5.85023 0.196282 0.875995 34.8673 -15.6121 -4.70138 -35.7025 0.0 0.0 -0.0 0.0 -0.0 38.1628 2.95567 -2.85902 -16.5966 -0.320634 -2.51785 -5.33763 12.6589 -0.847582 0.59795 -0.0 -0.0 0.0 0.0 0.0 
2751.51 700.444 -1266.42 -17.1467 68.9483 11.2142 3.43474 0.3437 3.96613 3.44348 0.0908327 3.97993 3.44599 -0.512041 3.94795 3.42426 0.117379 3.97924 -11.6825 16.1285 -0.993566 -12.2341 31.2108 3.75343 -0.0 0.0 -0.0 -7.90812 23.3741 -8.30051 -26.16 -19.5161 69.8729 0.993944 -26.2138 0.231429 18.4726 0.276893 -2.33326 -1.30982 -1.697 -9.5427 -0.0 0.0 -0.0 12.4664 22.6743 -24.7912 -4.42964 46.3979 -60.082 1.30427 32.8649 -0.384686 59.2231 1.70525 7.0358 2.49789 -6.52782 -19.4206 0.0 0.0 0.0 -14.5056 -1.07934 11.8171 -6.03461 0.201007 0.903895 35.511 -12.3804 -4.67208 -35.5696 0.0 0.0 -0.0 0.0 -0.0 37.1987 2.92194 -2.5184 -17.0258 -0.31919 -2.58367 -3.89076 11.9752 -0.613163 1.55205 -0.0 -0.0 0.0 0.0 0.0 
2729.92 703.904 -1270.8 -13.9762 69.1529 7.96714 3.22685 0.470859 3.93814 3.23545 0.219512 3.96007 3.24741 -0.39523 3.94643 3.22576 0.232491 3.95933 -12.7495 16.1996 -0.132725 -13.4186 30.8948 4.92115 -0.0 0.0 -0.0 -7.9646 23.7409 -8.25154 -25.8977 -19.5516 69.7217 1.12999 -29.2377 0.294747 17.9629 0.279408 -2.26821 -1.31206 -1.31497 -9.38685 -0.0 0.0 -0.0 12.3792 22.3077 -24.623 -6.41687 46.0218 -60.399 1.31821 33.1431 -0.392279 58.9579 1.68203 7.01097 2.45265 -6.86451 -19.2276 0.0 0.0 0.0 -14.6589 -2.29235 11.8586 -8.75564 0.260267 1.31721 33.0574 -12.4089 -4.42607 -35.573 0.0 0.0 -0.0 0.0 -0.0 34.7964 4.11869 -1.82431 -18.331 -0.311768 -2.78379 -3.10416 12.1076 -0.488769 3.13386 -0.0 -0.0 0.0 0.0 0.0 
2712.68 706.769 -1278.57 -11.1785 69.3447 5.21214 3.11559 0.564016 3.81275 3.12362 0.320442 3.84086 3.1424 -0.283876 3.84373 3.12194 0.326271 3.84036 -14.8102 16.122 0.475534 -15.701 30.547 6.09708 -0.0 0.0 -0.0 -8.20497 23.635 -8.63384 -26.1933 -19.7191 69.3492 1.25129 -31.7914 0.356351 17.7186 0.280409 -2.23702 -0.951326 -1.43023 -6.99569 -0.0 0.0 -0.0 12.6276 21.7785 -25.2423 -8.29283 45.3618 -60.24 1.28525 32.4824 -0.374416 58.6609 1.65617 6.98303 2.21079 -5.95166 -17.225 0.0 0.0 0.0 -15.3018 -3.39308 12.0279 -9.95954 0.280208 1.50087 28.4762 -11.7822 -3.91528 -36.7197 0.0 0.0 -0.0 0.0 -0.0 33.0519 5.48911 -2.10739 -19.2232 -0.304073 -2.92047 -2.56588 10.3885 -0.399186 4.61335 -0.0 -0.0 0.0 0.0 0.0 
2697.53 710.679 -1280.03 -12.0548 70.2609 6.20678 3.02573 0.551014 3.65191 3.03309 0.317679 3.67952 3.0512 -0.267221 3.68352 3.03241 0.317471 3.67953 -14.6273 15.7374 0.449067 -15.4497 29.8128 5.86346 -0.0 0.0 -0.0 -8.13543 23.7129 -8.50587 -24.1706 -19.6894 70.0004 1.27057 -32.185 0.366565 18.5916 0.276221 -2.34845 -0.485019 2.02438 -2.36949 -0.0 0.0 -0.0 12.7813 21.9036 -25.5876 -10.1446 44.5935 -59.8408 1.23604 31.4777 -0.348352 58.4693 1.63956 6.96494 2.15716 -4.06994 -16.1534 0.0 0.0 0.0 -15.9218 -5.48586 11.5943 -8.2719 0.251168 1.24354 23.8314 -12.1966 -3.3766 -39.1466 0.0 0.0 -0.0 0.0 -0.0 31.3067 6.38978 -2.25797 -19.8715 -0.297146 -3.0197 -0.168833 3.57937 -0.0252695 8.50659 -0.0 -0.0 0.0 0.0 0.0 
2682.11 707.751 -1286.13 -11.5337 70.4961 6.04192 3.0557 0.618585 3.57478 3.06272 0.390011 3.60684 3.08507 -0.182015 3.62327 3.06697 0.392116 3.60661 -12.8474 15.6998 -0.0218063 -13.4779 29.8825 4.87875 -0.0 0.0 -0.0 -8.56431 23.5793 -9.17218 -23.4239 -19.6783 69.1845 1.28295 -32.436 0.373185 17.0956 0.282358 -2.15747 -0.065749 2.09405 0.443609 -0.0 0.0 -0.0 13.0416 23.6404 -26.0303 -11.5714 44.0742 -59.4984 1.19054 30.5293 -0.324916 57.6803 1.57181 6.88986 1.32515 -8.31528 -12.1211 0.0 0.0 0.0 -15.8474 -7.76182 10.9974 -10.1223 0.282608 1.52573 22.4688 -11.6069 -3.19659 -40.1341 0.0 0.0 -0.0 0.0 -0.0 29.7212 6.61158 -3.0893 -19.8016 -0.297947 -3.00901 3.78879 0.585945 0.555652 11.8663 -0.0 -0.0 0.0 0.0 0.0 
2668.22 707.354 -1289.85 -11.85 71.5518 6.01105 2.91312 0.60033 3.45317 2.91968 0.379515 3.48432 2.94097 -0.181926 3.50019 2.92407 0.372803 3.48505 -14.0089 15.1104 1.07275 -14.6697 28.1912 6.02161 -0.0 0.0 -0.0 -8.66493 23.1913 -9.46454 -20.9179 -19.939 69.0864 1.32435 -33.265 0.395639 18.5155 0.276654 -2.33873 -0.270115 7.39175 1.32283 -0.0 0.0 -0.0 13.0144 22.8137 -26.0469 -12.5794 43.6138 -59.3732 1.09501 28.4761 -0.277862 57.6003 1.56501 6.8822 1.75568 -4.82437 -13.6965 0.0 0.0 0.0 -16.7324 -8.20471 10.8091 -8.69761 0.259209 1.30837 19.5764 -15.0581 -2.89199 -40.161 0.0 0.0 -0.0 0.0 -0.0 28.6114 6.77348 -2.87807 -20.3558 -0.291239 -3.09377 6.62945 -1.89183 0.958367 9.70224 -0.0 -0.0 0.0 0.0 0.0 
2645.53 702.766 -1296.46 -9.94873 71.4333 4.07078 2.92978 0.502286 3.42795 2.93627 0.283272 3.45292 2.95149 -0.27145 3.45387 2.93495 0.277097 3.45342 -14.957 15.3281 1.787 -15.7072 28.2714 7.03157 -0.0 0.0 -0.0 -9.21694 23.4759 -10.1614 -18.0608 -20.204 70.3047 1.14773 -29.6196 0.303464 17.5933 0.28087 -2.22103 0.279055 8.73142 5.43276 -0.0 0.0 -0.0 13.0961 23.5109 -26.1697 -13.9125 43.0704 -60.5381 1.10763 28.7522 -0.283907 56.4563 1.46879 6.77157 1.49674 -5.07854 -12.0448 0.0 0.0 0.0 -15.6725 -7.54938 11.2529 -15.5799 0.322088 2.36186 19.9011 -13.0964 -2.8964 -40.1543 0.0 0.0 -0.0 0.0 -0.0 26.3476 7.64059 -2.70934 -21.0867 -0.281139 -3.20547 13.1672 -2.90297 1.85658 11.5186 -0.0 -0.0 0.0 0.0 0.0 
2638.0 701.402 -1301.28 -9.13332 72.3494 3.3557 2.8663 0.50725 3.3875 2.87264 0.290795 3.41287 2.88827 -0.261383 3.41525 2.87211 0.28095 3.4137 -14.5422 15.0586 2.08144 -15.207 27.5409 7.08311 -0.0 0.0 -0.0 -9.29628 23.2517 -10.3672 -16.2842 -19.7223 70.003 1.19107 -30.5404 0.325185 17.5142 0.281144 -2.21092 0.829391 10.211 9.5787 -0.0 0.0 -0.0 13.0106 23.2387 -25.9977 -13.9644 42.8654 -61.0847 1.05699 27.636 -0.259981 55.1633 1.36274 6.64428 1.24868 -6.04377 -10.7536 0.0 0.0 0.0 -13.4569 -8.68873 10.5447 -21.6432 0.272494 3.29043 19.9995 -13.5199 -2.91722 -40.1164 0.0 0.0 -0.0 0.0 -0.0 25.2587 7.86905 -2.92142 -20.8394 -0.284716 -3.1677 17.4443 -3.71986 2.41381 9.8154 -0.0 -0.0 0.0 0.0 0.0 
2632.87 706.223 -1304.01 -11.2563 72.6797 5.7655 2.71987 0.547199 3.3429 2.72602 0.333497 3.3709 2.74428 -0.220913 3.38014 2.72848 0.315377 3.37264 -14.3293 15.2794 2.1578 -14.9927 27.8961 7.17842 -0.0 0.0 -0.0 -9.25775 22.4777 -10.6179 -12.4289 -19.9911 70.863 1.12178 -29.0598 0.290744 19.1048 0.272968 -2.41391 1.17117 14.1295 13.2213 -0.0 0.0 -0.0 13.4295 23.8011 -26.9172 -15.449 41.3274 -60.2895 1.02953 27.021 -0.247374 53.883 1.26061 6.51594 1.35198 -3.38978 -10.4169 0.0 0.0 0.0 -12.7035 -9.76072 10.007 -20.6993 0.28667 3.14629 17.376 -13.8752 -2.57429 -40.0646 0.0 0.0 -0.0 0.0 -0.0 25.1493 7.65839 -3.84118 -18.0185 -0.31396 -2.7359 18.3908 -10.1948 2.53258 8.55289 -0.0 -0.0 0.0 0.0 0.0 
2627.44 706.307 -1305.41 -12.8486 71.853 7.64143 2.60716 0.659991 3.30587 2.61313 0.448413 3.34111 2.63822 -0.108717 3.36928 2.62263 0.42446 3.34424 -12.8864 14.2961 3.13772 -13.2915 25.2486 7.36708 -0.0 0.0 -0.0 -9.25154 21.7269 -10.9049 -10.022 -20.2972 72.273 1.12394 -29.1067 0.291796 19.6123 0.269174 -2.47863 1.34149 16.4493 15.1091 -0.0 0.0 -0.0 13.6046 25.2215 -27.1713 -15.9463 40.327 -60.531 1.01485 26.6892 -0.24074 52.236 1.1335 6.34757 1.21186 -4.62527 -9.95955 0.0 0.0 0.0 -8.8982 -8.35056 9.72796 -26.0327 0.175466 3.95687 14.8635 -16.0474 -2.26342 -40.1282 0.0 0.0 -0.0 0.0 -0.0 23.4411 7.60188 -4.29205 -13.5038 -0.316459 -2.04339 21.5847 -12.9472 2.94108 7.7822 -0.0 -0.0 0.0 0.0 0.0 
2617.68 706.954 -1306.23 -12.2691 71.6761 7.45432 2.5624 0.579818 3.17604 2.56794 0.37665 3.20645 2.58808 -0.160211 3.2245 2.57374 0.350782 3.20938 -11.6671 14.768 2.63763 -12.0239 26.3021 6.75078 -0.0 0.0 -0.0 -9.42776 21.2148 -11.3781 -8.8742 -20.5006 72.8813 1.17432 -30.1866 0.316719 21.2859 0.252604 -2.69174 1.79205 18.2032 18.5583 -0.0 0.0 -0.0 13.2964 25.7888 -26.3883 -16.1761 40.1721 -61.0122 0.991675 26.1619 -0.230428 51.7016 1.0933 6.29216 1.27497 -2.87394 -9.69612 0.0 0.0 0.0 -7.13842 -10.3988 9.8782 -28.2048 0.108629 4.28351 10.7479 -16.0071 -1.66567 -40.1398 0.0 0.0 -0.0 0.0 -0.0 22.2098 7.97079 -4.79871 -11.9543 -0.30474 -1.80594 23.7895 -14.896 3.22137 6.86243 -0.0 -0.0 0.0 0.0 0.0 
2608.69 707.182 -1307.29 -11.3624 70.991 6.38123 2.4649 0.529066 3.28754 2.47085 0.318916 3.31451 2.48841 -0.240961 3.32108 2.47313 0.286269 3.31748 -11.41 14.6459 1.2183 -11.7813 26.9516 5.30455 -0.0 0.0 -0.0 -9.35732 20.6773 -11.4815 -7.40179 -19.2663 73.5999 1.24583 -31.6795 0.353482 23.4015 0.222761 -2.96032 1.69042 17.812 17.7839 -0.0 0.0 -0.0 12.6562 22.1175 -25.2792 -15.9291 40.4629 -61.9554 0.979867 25.8913 -0.225247 50.3053 0.990755 6.14569 1.12594 -2.75582 -8.64878 0.0 0.0 0.0 -4.23484 -9.747 8.88312 -31.4792 -0.0154263 4.77064 9.1757 -22.3007 -1.51361 -40.1519 0.0 0.0 -0.0 0.0 -0.0 21.0508 8.20349 -4.43009 -11.8967 -0.304181 -1.79713 26.2828 -15.2913 3.51884 6.55985 -0.0 -0.0 0.0 0.0 0.0 
2600.43 709.681 -1310.71 -12.2662 70.7783 7.99313 2.47385 0.521668 3.17396 2.4794 0.31875 3.20068 2.49637 -0.221584 3.20886 2.48212 0.28771 3.20362 -10.5032 14.6165 1.61047 -10.7847 26.5314 5.44112 -0.0 0.0 -0.0 -9.54783 20.9534 -11.669 -6.29215 -19.9761 72.9663 1.29377 -32.6542 0.379005 25.2467 0.18865 -3.19354 2.24118 18.2619 21.4956 -0.0 0.0 -0.0 13.0294 25.9268 -25.7537 -17.3487 40.657 -62.339 0.970474 25.6752 -0.221161 48.0995 0.836138 5.90937 0.81181 -3.66226 -6.91185 0.0 0.0 0.0 -4.21091 -10.5834 7.85725 -32.0744 -0.0409621 4.8584 6.92253 -20.9494 -1.13659 -39.4924 0.0 0.0 -0.0 0.0 -0.0 21.1821 8.12359 -5.87336 -11.5434 -0.300556 -1.74304 27.8427 -18.9494 3.74251 7.25577 -0.0 -0.0 0.0 0.0 0.0 
2587.85 711.593 -1309.29 -11.4363 70.0078 7.09912 2.47554 0.517414 3.31696 2.4816 0.30542 3.34312 2.49849 -0.2585 3.34707 2.48296 0.273047 3.34591 -10.2876 14.0102 0.437619 -10.5471 26.1353 4.09112 -0.0 0.0 -0.0 -9.53292 21.0181 -11.6198 -5.75913 -19.0125 72.8704 1.37446 -34.2478 0.423486 27.0601 0.147823 -3.42159 2.34939 16.4226 21.6726 -0.0 0.0 -0.0 12.9038 25.5007 -25.5126 -18.4466 40.6374 -63.2945 0.900247 24.0345 -0.19164 45.5099 0.666435 5.62469 0.875615 -3.43396 -7.24553 0.0 0.0 0.0 -1.48442 -7.85154 7.27856 -36.2675 -0.246542 5.46869 5.16942 -25.369 -0.895159 -40.1656 0.0 0.0 -0.0 0.0 -0.0 19.9141 8.46138 -5.32966 -11.9656 -0.304849 -1.80767 29.3 -18.5128 3.90181 7.47985 -0.0 -0.0 0.0 0.0 0.0 
